<svg width="128" height="128" viewBox="0 0 128 128" fill="none" xmlns="http://www.w3.org/2000/svg">
  <defs>
    <linearGradient id="loop" x1="20" y1="47" x2="108" y2="80" gradientUnits="userSpaceOnUse">
      <stop stop-color="#C084FC"/>
      <stop offset="0.34" stop-color="#7C3AED"/>
      <stop offset="0.68" stop-color="#2563EB"/>
      <stop offset="1" stop-color="#22D3EE"/>
    </linearGradient>
  </defs>
  <rect width="128" height="128" rx="28" fill="#0B0F1A"/>
  <path d="M20 63.5C20 54.387 27.387 47 36.5 47C46.884 47 53.498 54.736 61.574 60.695C62.444 61.337 63.397 62.044 64 62.654C64.603 62.044 65.556 61.337 66.426 60.695C74.502 54.736 81.116 47 91.5 47C100.613 47 108 54.387 108 63.5C108 72.613 100.613 80 91.5 80C81.116 80 74.502 72.264 66.426 66.305C65.556 65.663 64.603 64.956 64 64.346C63.397 64.956 62.444 65.663 61.574 66.305C53.498 72.264 46.884 80 36.5 80C27.387 80 20 72.613 20 63.5Z" stroke="url(#loop)" stroke-width="12" stroke-linecap="round" stroke-linejoin="round"/>
</svg>
